<svg width="19" height="19" viewBox="0 0 19 19" fill="none" xmlns="http://www.w3.org/2000/svg">
<path d="M10 3H9V0H10V3ZM0 10H3V9H0V10ZM16 9V10H19V9H16ZM4.8284 5.1213L2.7071 3L2 3.7071L4.1213 5.8284L4.8284 5.1213ZM17 3.7071L16.2929 3L14.1716 5.1213L14.8787 5.8285L17 3.7071ZM7 19H12V18H7V19ZM15 9.5C15 11.6364 13.7795 13.4839 12 14.3948V17H7V14.3948C5.2205 13.484 4 11.6364 4 9.5C4 6.4624 6.4625 4 9.5 4C12.5375 4 15 6.4624 15 9.5ZM14 9.5C14 7.0187 11.9813 5 9.5 5C7.0187 5 5 7.0187 5 9.5C5 11.1948 5.9409 12.7293 7.4556 13.5046L8 13.7832V16H11V13.7832L11.5444 13.5046C13.0591 12.7293 14 11.1948 14 9.5Z" fill="white"/>
</svg>
