<svg data-name="Ebene 1" xmlns="http://www.w3.org/2000/svg" viewBox="0 0 20 20">
    <path d="M6.59 3A5.643 5.643 0 0 0 4 2.343 5.639 5.639 0 0 0 0 4l4 4h2v5H4v2a2 2 0 0 0 2 2h9a1.99 1.99 0 0 0 1.658-.882C16.874 15.8 17 15.414 17 15V3H6.59ZM4.414 7 1.49 4.076A4.626 4.626 0 0 1 4 3.343c1.244 0 2.413.484 3.293 1.364L9.586 7 7.879 8.707A.994.994 0 0 1 7.17 9H7V7H4.414ZM6 16c-.551 0-1-.449-1-1v-1h8v1c0 .366.106.705.277 1H6Zm10-1c0 .551-.449 1-1 1s-1-.449-1-1v-2H7v-3h.172a2 2 0 0 0 1.414-.586l1.707-1.707 2 2L13 9l-2-2-3-3h8v11Z" style="fill:#fff;stroke-width:0"/>
</svg>
