<svg data-name="Ebene 1" xmlns="http://www.w3.org/2000/svg" viewBox="0 0 20 20">
    <path d="M7 10h.172a2 2 0 0 0 1.414-.586l1.707-1.707 2 2L13 9l-2-2-3-3h8v6.025c.344.031.677.096 1 .187V3H6.59A5.643 5.643 0 0 0 4 2.343 5.639 5.639 0 0 0 0 4l4 4h2v5H4v2a2 2 0 0 0 2 2h4.212a5.463 5.463 0 0 1-.187-1H6c-.551 0-1-.449-1-1v-1h5.212a5.46 5.46 0 0 1 .393-1H7v-3ZM4.414 7 1.49 4.076A4.626 4.626 0 0 1 4 3.343c1.244 0 2.413.484 3.293 1.364L9.586 7 7.879 8.707A.994.994 0 0 1 7.17 9H7V7H4.414ZM19 15v1h-3v3h-1v-3h-3v-1h3v-3h1v3h3Z" style="fill:#000;stroke-width:0"/>
</svg>
