<svg width="20" height="20" viewBox="0 0 20 20" fill="none" xmlns="http://www.w3.org/2000/svg">
<g opacity="0.7">
<path d="M9.8075 13C7.9539 13 6.2741 13.7321 5.0215 14.9133C6.2915 16.2001 8.0535 17 10 17C10.0708 17 10.1395 16.9919 10.2098 16.9897C10.3059 17.3314 10.4339 17.6589 10.5909 17.9701C10.3951 17.9844 10.1995 17.9999 10 17.9999C5.5817 17.9999 2 14.4182 2 9.9999C2 5.5816 5.5817 2 10 2C14.4183 2 18 5.5817 18 10C18 10.1995 17.9845 10.395 17.9702 10.5908C17.6566 10.4327 17.3265 10.3041 16.982 10.2077C16.9841 10.1373 17.0001 10.0708 17.0001 9.9999C17.0001 6.1401 13.8599 2.9999 10.0001 2.9999C6.1403 2.9999 3.0001 6.1401 3.0001 9.9999C3.0001 11.5538 3.5153 12.9863 4.3753 14.149C5.8025 12.8219 7.705 11.9999 9.8076 11.9999C10.2713 11.9999 10.7223 12.0484 11.1637 12.1248C10.9409 12.4106 10.7468 12.7187 10.5833 13.0457C10.3285 13.0171 10.07 13 9.8075 13ZM10 5C11.6569 5 13 6.3431 13 8C13 9.6569 11.6569 11 10 11C8.3431 11 7 9.6569 7 8C7 6.3431 8.3431 5 10 5ZM10 6C8.8972 6 8 6.8972 8 8C8 9.1028 8.8972 10 10 10C11.1028 10 12 9.1028 12 8C12 6.8972 11.1028 6 10 6ZM16 15V12H15V15H12V16H15V19H16V16H19V15H16Z" fill="white"/>
</g>
</svg>
