<svg data-name="Ebene 1" xmlns="http://www.w3.org/2000/svg" viewBox="0 0 20 20">
    <path d="m15.928 9.963 1.989 3.013-.834.55-1.973-2.989a9.488 9.488 0 0 1-2.518 1.108l.404 3.23-.992.125-.393-3.137c-.524.084-1.059.137-1.611.137s-1.087-.053-1.612-.138L7.996 15l-.992-.123.404-3.23a9.492 9.492 0 0 1-2.513-1.106l-1.978 3.006-.835-.549 1.994-3.03A9.601 9.601 0 0 1 1 6h1.094a8.528 8.528 0 0 0 3.05 3.534C6.617 10.52 8.206 11 10 11s3.383-.48 4.856-1.466A8.528 8.528 0 0 0 17.906 6H19a9.6 9.6 0 0 1-3.071 3.963Z" style="fill:#000;stroke-width:0"/>
</svg>
