<svg width="16" height="16" viewBox="0 0 16 16" fill="none" xmlns="http://www.w3.org/2000/svg">
<path d="M15.4 4.9C15 3.9 14.4 3.1 13.7 2.4C13 1.7 12.1 1 11.1 0.6C10.1 0.2 9.1 0 8 0C6.9 0 5.9 0.2 4.9 0.6C3.9 1 3.1 1.6 2.3 2.3C1.5 3 1 3.9 0.6 4.9C0.2 5.9 0 6.9 0 8C0 9.1 0.2 10.1 0.6 11.1C1 12.1 1.6 12.9 2.3 13.7C3 14.4 3.9 15 4.9 15.4C5.9 15.8 6.9 16 8 16C9.1 16 10.1 15.8 11.1 15.4C12.1 15 12.9 14.4 13.6 13.7C14.3 13 14.9 12.1 15.3 11.1C15.7 10.1 15.9 9.1 15.9 8C16 6.9 15.8 5.9 15.4 4.9ZM14.5 10.7C14.1 11.6 13.6 12.3 13 12.9C12.4 13.5 11.6 14 10.8 14.4C9.9 14.8 9 15 8 15C7 15 6.1 14.8 5.3 14.5C4.4 14.1 3.7 13.6 3.1 13C2.5 12.4 2 11.6 1.6 10.8C1.2 9.9 1 9 1 8C1 7 1.2 6.1 1.5 5.3C1.9 4.5 2.4 3.7 3 3.1C3.6 2.5 4.4 2 5.2 1.6C6.1 1.2 7 1 8 1C9 1 9.9 1.2 10.7 1.5C11.5 1.9 12.3 2.4 12.9 3C13.5 3.6 14 4.4 14.4 5.2C14.8 6.1 15 7 15 8C15 9 14.8 9.9 14.5 10.7ZM8.8 5C8.8 5.4 8.5 5.8 8 5.8C7.5 5.8 7.2 5.4 7.2 5C7.2 4.6 7.6 4.2 8 4.2C8.4 4.2 8.8 4.6 8.8 5ZM7.5 7H8.5V12H7.5V7Z" fill="white"/>
</svg>
