<svg width="24" height="24" viewBox="0 0 24 24" fill="none" xmlns="http://www.w3.org/2000/svg">
<rect width="24" height="24" rx="12" fill="#4F4ED8"/>
<path d="M17.3063 6.4162C17.3063 6.4162 18.864 8.10955 19.1248 10.2291C19.4248 12.6662 18.8752 13.9631 18.8752 13.9631C18.5792 14.9762 17.9303 16.1325 17.2263 16.84C16.8783 17.1874 16.6647 17.3635 16.2767 17.6232C16.1207 17.7269 15.9599 17.8242 15.7935 17.9127C15.7679 17.9255 15.7407 17.94 15.7127 17.9545C15.4239 18.104 15.1223 18.2311 14.8119 18.3348C13.5814 18.7207 12.5166 18.5511 12.4454 18.5471C10.7349 18.4377 10.5717 16.8433 10.5717 16.8433C10.2605 17.3056 10.4045 17.9971 10.4045 17.9971C10.0117 17.7695 9.73251 16.8376 10.0613 16.1494C10.1813 15.8993 10.2589 15.7875 10.4405 15.6058C10.7901 15.2552 11.2286 15.0148 12.3974 14.534C12.955 14.3056 13.3566 14.1086 13.6238 13.9326C13.947 13.7195 14.2502 13.4847 14.4334 13.3046L14.5422 13.1993C14.4926 13.5233 14.4254 13.8642 14.4246 13.8682L14.3942 14.0218L14.4878 13.8964C14.8599 13.3963 15.0663 12.9331 15.1727 12.6372C15.1631 12.8149 15.1391 13.0344 15.0855 13.2781L15.0607 13.393L15.1447 13.311C15.1527 13.303 15.9271 12.5343 15.9367 11.2341C16.0303 11.3451 16.2143 11.5887 16.3647 11.9481L16.4007 12.035L16.4303 11.9457C16.4335 11.9353 16.7583 10.9214 16.1327 9.74742C16.2327 9.83587 16.3671 9.96774 16.4783 10.1261L16.5519 10.2315L16.5423 10.1036C16.5407 10.0803 16.4951 9.55847 15.9199 8.98276C16.0847 9.0294 16.4103 9.1685 16.8919 9.58259L16.9647 9.64531L16.9495 9.54963C16.9479 9.53917 16.7695 8.50676 15.5039 7.91256C15.6831 7.91417 15.9879 7.93025 16.2871 8.01226L16.4047 8.04442L16.3223 7.95357C16.2919 7.9206 15.5607 7.15031 13.3366 7.5644C13.2158 7.58531 13.1038 7.60621 13.0038 7.62792C13.4126 7.4655 14.2462 7.22991 15.6671 7.21061L15.8287 7.2082L15.6807 7.14227C15.6695 7.13744 14.607 6.67511 13.2342 6.9308C13.2798 6.9115 13.3254 6.89301 13.3654 6.87773C13.667 6.76516 13.9766 6.70647 14.5486 6.6534C15.0567 6.60596 15.3055 6.57299 15.5263 6.48857C16.2591 6.24011 16.6879 5.62501 16.6919 5.61857L16.8079 5.45053L16.6423 5.56953C16.1319 5.93779 15.4687 6.10664 14.3518 6.15488C13.1798 6.20473 12.8982 6.2763 12.887 6.27871C12.4014 6.39369 12.0094 6.56817 11.7494 6.70486C11.9566 6.54083 12.1366 6.4363 12.5718 6.20313C12.8446 6.05759 13.139 5.88954 13.2422 5.82039C13.6846 5.5245 14.019 5.16428 14.2078 4.77913C14.4062 4.36344 14.3886 4.01849 14.3918 4L14.3806 4.02332C14.3222 4.18976 14.219 4.36665 14.143 4.48485C13.7718 5.05091 13.307 5.39424 12.3038 5.84532C11.9126 6.0206 11.4894 6.23448 11.3326 6.33258C11.3814 6.12513 11.559 5.91688 11.8614 5.71345C12.1718 5.50279 12.3886 5.31946 12.5054 5.16991C12.7582 4.88286 12.7998 4.48163 12.8054 4.46636L12.7622 4.54194C12.6822 4.70114 12.4806 4.89894 12.3982 4.97613C12.2054 5.15383 11.9958 5.30017 11.6966 5.4658C11.1446 5.77537 10.9605 5.97075 10.8405 6.37439C10.8253 6.42585 10.8125 6.47007 10.8005 6.50706C10.6925 6.79089 10.4981 6.94045 10.3861 7.00638C10.4405 6.8713 10.4933 6.70004 10.4965 6.69119L10.5341 6.56978L9.84851 7.18086C9.66691 7.31997 9.62211 7.38831 9.52931 7.67214C9.4381 7.94231 9.3605 8.06292 9.13409 8.28645C8.86209 8.55179 8.57008 8.70375 8.47648 8.6724C8.46608 8.66918 8.46368 8.66838 8.46208 8.64827C8.45728 8.59038 8.49648 8.4151 8.51168 8.35318L8.54448 8.22132L8.15007 8.64345C8.10607 8.68848 8.06286 8.73511 8.02366 8.77853C7.94926 8.86135 7.90366 8.91844 7.88846 8.94738C7.86126 9.00206 7.84766 9.09211 7.85006 9.19986C7.85246 9.50058 7.89326 9.70642 8.10047 9.93316L8.24607 10.0964L8.27807 9.9597C8.33407 9.69918 8.56528 9.53194 8.96609 9.46279C8.95089 9.47404 8.93329 9.48691 8.91489 9.50058C8.55168 9.77315 8.55168 9.8423 8.55168 9.86562C8.55168 9.93397 8.65888 10.0883 8.72928 10.1728C8.73008 10.1744 8.75008 10.2025 8.79248 10.2427C8.81409 10.2644 8.83329 10.2813 8.85169 10.295C9.02929 10.4389 9.4397 10.6665 10.1877 10.5716L10.3661 10.5491L9.93252 10.4325C9.91252 10.4244 9.89092 10.4156 9.86852 10.4076C9.58931 10.3038 9.4365 10.1567 9.3885 9.94522C9.3653 9.83748 9.3901 9.72732 9.4621 9.61958C9.61571 9.39042 9.95252 9.21112 10.3637 9.13955C10.6357 9.09131 11.0701 9.10739 11.3318 9.17413C11.4966 9.21674 11.651 9.27866 11.791 9.35906L11.7982 9.36308C11.8078 9.36871 11.8174 9.37434 11.827 9.37997L11.8382 9.38721C12.475 9.79406 12.4638 10.6222 12.4638 10.6311L12.4574 10.9117L12.5334 10.6415C12.6534 10.213 12.6622 9.83426 12.5606 9.51827C12.5526 9.49093 12.543 9.46279 12.5302 9.43384C12.4894 9.33333 12.411 9.19906 12.3598 9.15483C12.2478 9.01975 12.103 8.90075 11.9502 8.81873L11.8534 8.76647C11.8534 8.76647 12.2302 8.61692 12.7894 8.64988C13.7686 8.66918 14.3758 9.2875 14.3758 9.2875C13.915 8.96105 13.2222 8.95301 13.2222 8.95301C13.3662 9.03503 13.7318 9.28991 13.8446 9.80532C13.9246 10.1993 13.8086 10.6279 13.519 11.0122C13.1454 11.5075 12.323 11.969 10.8525 12.5094C10.1389 12.7715 10.0565 12.8029 9.75811 12.9307C9.07169 13.2234 7.84446 13.906 7.33484 15.1973C7.10844 15.7714 7.05484 16.4243 7.18444 17.0362C7.41005 18.1 8.17087 18.9997 9.3269 19.569C9.3309 19.5706 9.71891 19.7596 10.3565 19.93L10.6165 20L9.76851 19.5079C9.52851 19.3543 9.3061 19.1783 9.10849 18.9845C8.69648 18.5816 8.39407 18.104 8.23327 17.6039C7.99966 16.8738 8.05646 16.0762 8.38927 15.4152C8.94289 14.3161 10.0653 13.7645 11.2654 13.2499C11.9486 12.9572 12.4038 12.7474 12.6974 12.5898C13.2958 12.2714 13.8726 11.887 14.167 11.6104C14.1678 11.6096 14.1758 11.6024 14.1854 11.5927C14.0238 11.9385 13.7606 12.2368 13.6126 12.3888C13.5766 12.4249 13.5406 12.4611 13.5022 12.4965C12.8966 13.0545 12.1878 13.4147 11.4654 13.7927C10.8133 14.1336 10.0805 14.4882 9.61251 15.0783C9.3293 15.3959 9.2301 15.6291 9.2269 15.6372C8.58768 16.9454 8.94849 18.3943 10.1245 19.241C10.8341 19.7515 12.1686 19.9405 13.1198 19.8633C14.0182 19.7901 14.8247 19.5891 15.5599 19.2498L15.5495 19.2627C18.1767 18.0437 20 15.3734 20 12.2746C20.0008 9.92753 18.9552 7.82652 17.3063 6.4162ZM9.86131 8.20765C9.86371 8.12724 9.88532 7.89969 10.0469 7.77908C10.2237 7.64641 10.5877 7.59817 10.7461 7.59415C10.4837 8.23338 9.98692 8.22132 9.86131 8.20765ZM6.11321 16.4943C6.36202 17.4133 6.79243 17.9915 6.79243 17.9915C5.6884 16.9719 5.31479 16.0448 5.19558 15.4418C5.17238 15.2874 5.14918 15.0454 5.15638 14.7953L5.15958 14.7246C4.96998 15.2665 5.00918 15.88 5.00998 15.888C5.01478 16.0312 5.06678 16.2273 5.06678 16.2273C5.06678 16.2273 5.01718 16.1719 4.94118 16.0488C4.86837 15.9315 4.75877 15.716 4.75877 15.716C4.69637 15.5849 4.62437 15.4209 4.56677 15.2778C4.29316 14.6056 4.13635 13.9888 4.04355 13.2153C3.99235 12.7972 3.98435 11.8026 4.02995 11.411C4.11795 10.6568 4.31636 9.9211 4.63717 9.16046C5.24919 7.71637 6.33082 6.44274 7.68365 5.57274C8.70048 4.91985 9.87892 4.51058 11.1854 4.35459C11.2382 4.34816 11.3262 4.34333 11.4478 4.33931L12.0558 4.31921L11.4686 4.47922C9.57891 4.99382 8.19807 6.06081 7.37325 6.86567C6.70123 7.52018 6.27801 8.11197 6.10681 8.37087L6.01881 8.50997C5.7588 8.91924 5.54119 9.35343 5.37239 9.79969C5.12038 10.4655 4.97078 11.1698 4.92838 11.8919L4.92598 11.9353C4.90518 12.2915 4.88277 12.6597 4.91558 13.0055C4.93558 13.2177 4.95718 13.4549 5.05798 13.7235C5.20118 13.496 5.38359 13.237 5.51559 13.0778L5.6532 12.913C5.6444 12.7281 5.6436 11.764 6.50682 11.3636L6.68043 11.2832L6.60042 11.4585C6.43722 11.8147 6.46442 12.0438 6.49082 12.1427C6.51322 12.1291 6.54282 12.1098 6.57802 12.084C7.03244 11.7495 7.72365 11.5501 8.42687 11.5501C8.72368 11.5501 9.00609 11.5855 9.2661 11.6547C9.2741 11.6571 9.4637 11.7053 9.65011 11.8171L9.84051 11.9313L9.61971 11.9489C9.4405 11.9634 9.3053 11.9707 9.1965 11.9771C8.93969 11.9916 8.82209 11.998 8.57008 12.0663C8.23967 12.1548 8.00446 12.347 7.99886 12.351C7.85486 12.4587 7.76286 12.6107 7.68285 12.8736C7.58765 13.184 7.42685 13.4389 7.21484 13.6117C7.20604 13.619 6.99803 13.783 6.78043 13.8666L6.60922 13.9326L6.69163 13.7685L6.79323 13.5667C6.89083 13.3721 6.88123 13.2644 6.86203 13.2451C6.86043 13.2435 6.85083 13.2387 6.82843 13.2387C6.80603 13.2387 6.77883 13.2427 6.74603 13.2515C6.37162 13.348 6.07241 13.8586 5.98441 14.5501C5.9532 14.7937 5.9412 15.0237 5.942 15.2416H5.9412C5.9412 15.2552 5.942 15.2681 5.942 15.2818C5.9476 15.7385 6.01401 16.1341 6.10601 16.4645C6.10761 16.4718 6.11001 16.479 6.11161 16.4855C6.11241 16.4887 6.11321 16.4911 6.11321 16.4943ZM17.0191 13.2684C17.0191 13.2684 16.8695 14.2719 15.8199 15.4008C15.8199 15.4008 17.6703 14.6884 17.5807 12.0125L17.6543 12.3534L17.7135 12.6308C17.7343 12.753 17.7479 12.8808 17.7543 13.0111C17.7671 13.262 17.7519 13.5177 17.7103 13.7726C17.6279 14.2711 17.4407 14.7624 17.1679 15.1933C16.6647 15.9893 16.1383 16.4308 15.1559 16.8794C15.0055 16.9486 14.8535 17.0105 14.7031 17.0644C14.5518 17.1191 14.4006 17.1657 14.251 17.2051C14.2742 17.1978 14.2718 17.1978 14.239 17.2083C14.1414 17.234 14.0446 17.2565 13.9486 17.2766C13.5926 17.3353 13.1918 17.3128 12.927 17.1263C12.5926 16.8899 13.0086 16.3978 13.0086 16.3978C12.0406 16.5152 12.055 17.1633 12.055 17.1633C12.055 17.1633 11.6206 16.5626 12.7174 16.0231C13.6574 15.56 15.7439 15.4233 17.0191 13.2684Z" fill="white"/>
</svg>
