<svg width="106" height="40" viewBox="0 0 106 40" fill="none" xmlns="http://www.w3.org/2000/svg">
<path d="M33.361 6.0515L33.345 6.03388L33.3473 6.03982L33.361 6.0515Z" fill="white"/>
<path fill-rule="evenodd" clip-rule="evenodd" d="M37.9014 15.5649C37.2737 10.4662 33.6326 6.35222 33.361 6.0515C37.4839 9.57948 40.0996 14.8261 40.0996 20.6871C40.0996 28.4351 35.5301 35.1108 28.9462 38.1575L28.9735 38.1254C27.1298 38.973 25.1095 39.4758 22.8567 39.6588C20.4724 39.8526 17.1289 39.3795 15.3504 38.1028C12.4017 35.9857 11.4983 32.3649 13.1001 29.0936C13.1084 29.0734 13.3574 28.4909 14.0676 27.6969C15.1585 26.3269 16.822 25.4642 18.3632 24.6649C18.4802 24.6042 18.5965 24.5439 18.7117 24.4838L18.9321 24.3689C20.6659 23.4649 22.3588 22.5823 23.8159 21.2434C23.8918 21.174 23.9647 21.1015 24.0375 21.029L24.0922 20.9747C24.4633 20.5944 25.1213 19.849 25.5268 18.9848C25.5031 19.0074 25.4841 19.0253 25.4806 19.0276C24.7443 19.7195 23.2978 20.6799 21.798 21.4764C21.0629 21.8698 19.9223 22.3952 18.209 23.1263C15.201 24.4101 12.3875 25.7914 11.0003 28.5385C10.1668 30.1908 10.0245 32.1854 10.6102 34.0101C11.011 35.2606 11.7698 36.4553 12.8025 37.4621C13.2981 37.9459 13.8541 38.3857 14.4564 38.7697L16.5906 40L15.9385 39.8253C14.3403 39.3985 13.3668 38.9266 13.3574 38.9218C10.4608 37.499 8.5543 35.2499 7.98875 32.5896C7.66388 31.0597 7.79786 29.4264 8.36578 27.9917C9.64272 24.7655 12.7195 23.0574 14.4387 22.3263C15.1868 22.0077 15.3919 21.9281 17.1811 21.2731C20.8672 19.9215 22.9279 18.7673 23.8634 17.5299C24.5902 16.5694 24.8806 15.4972 24.6803 14.5129C24.3969 13.2232 23.4816 12.5872 23.12 12.3816C23.12 12.3816 24.8557 12.403 26.0106 13.2184C26.0106 13.2184 24.4882 11.6731 22.0339 11.6244C20.6337 11.5412 19.6887 11.9144 19.6887 11.9144L19.9318 12.044C20.3135 12.2496 20.6787 12.548 20.9585 12.8844C21.0889 12.9949 21.2858 13.3314 21.3865 13.5822C21.4186 13.6559 21.4446 13.726 21.4636 13.7938C21.7185 14.5842 21.696 15.5293 21.3948 16.6015L21.2051 17.2767L21.2206 16.5753L21.2206 16.5743C21.2209 16.5176 21.2345 14.4752 19.6519 13.4669L19.6223 13.4478C19.6028 13.4351 19.5833 13.424 19.5632 13.4126L19.55 13.4051L19.5322 13.3944C19.1824 13.1947 18.7959 13.0389 18.3821 12.9319C17.7265 12.7655 16.6369 12.7263 15.9551 12.8464C14.9248 13.0247 14.0794 13.4728 13.6953 14.0458C13.5139 14.3156 13.451 14.5902 13.5103 14.86C13.6312 15.389 14.013 15.7563 14.7125 16.0166C14.7683 16.038 14.8228 16.0594 14.8726 16.0796L15.9598 16.3709L15.5117 16.4279C13.636 16.6657 12.6092 16.0975 12.1634 15.7373C12.1172 15.7028 12.0697 15.6612 12.0152 15.6065C11.9109 15.5043 11.8599 15.4342 11.8575 15.4306C11.682 15.2202 11.4129 14.8351 11.4129 14.6639C11.4129 14.6068 11.4129 14.4333 12.3223 13.7522C12.3644 13.7197 12.4035 13.6912 12.4397 13.6648L12.4503 13.6571C11.4461 13.8306 10.8663 14.2478 10.7264 14.8993L10.647 15.2416L10.283 14.8339C9.76247 14.2657 9.66051 13.751 9.65458 12.9997C9.64865 12.7311 9.68185 12.5064 9.75062 12.3697C9.78856 12.2948 9.90238 12.1533 10.0885 11.9465C10.1869 11.8371 10.2972 11.7207 10.4063 11.6077L11.3951 10.5522L11.3133 10.8826C11.2742 11.0383 11.1769 11.4746 11.1888 11.6208C11.1935 11.6712 11.1993 11.6731 11.2245 11.6811L11.2256 11.6814C11.4591 11.7587 12.193 11.3807 12.8736 10.7162C13.4415 10.1575 13.636 9.85676 13.8648 9.18039C14.096 8.47192 14.2086 8.29955 14.6639 7.95245L16.3819 6.42496L16.2883 6.72808L16.2828 6.74519C16.2555 6.83137 16.1352 7.21115 16.012 7.5162C16.2906 7.35097 16.7779 6.97652 17.0495 6.26805C17.0779 6.17415 17.1111 6.0636 17.149 5.93522C17.449 4.926 17.9102 4.43744 19.2939 3.6636C20.0444 3.24874 20.5696 2.88262 21.0522 2.43923C21.2597 2.24547 21.7624 1.75097 21.964 1.35394L22.0718 1.16493C22.0705 1.16885 22.0682 1.18301 22.0644 1.20604C22.0317 1.40649 21.8891 2.27904 21.3202 2.92303C21.0285 3.29747 20.4843 3.75631 19.7065 4.28172C18.9489 4.79168 18.5042 5.31233 18.3821 5.83061C18.7734 5.58455 19.8345 5.05082 20.8151 4.61218C23.331 3.4841 24.4941 2.62704 25.4249 1.21129C25.6146 0.915305 25.8718 0.474294 26.0189 0.0582467L26.0461 0C26.0454 0.00469328 26.0452 0.0182153 26.0449 0.0398461C26.0423 0.226403 26.0313 1.01612 25.5861 1.9471C25.113 2.90877 24.276 3.811 23.1662 4.55037C22.9089 4.72273 22.1714 5.14354 21.4873 5.50728C20.3965 6.09094 19.9472 6.35126 19.4267 6.76137C20.0776 6.42021 21.0617 5.98514 22.2782 5.69629C22.3054 5.68915 23.0121 5.51204 25.9489 5.38603C28.747 5.26597 30.4105 4.84279 31.6886 3.92273L32.1024 3.62437L31.8131 4.04517C31.8024 4.06062 30.7271 5.59762 28.8905 6.21932C28.3356 6.43091 27.7132 6.51412 26.4398 6.6318C25.0051 6.76493 24.2297 6.91233 23.4745 7.19287C23.3737 7.22972 23.2599 7.27608 23.1449 7.32481C26.5844 6.68529 29.2474 7.84071 29.2758 7.85379L29.6469 8.01783L29.2415 8.02377C25.6821 8.07013 23.5919 8.66092 22.5675 9.06627C22.8176 9.01278 23.0986 8.95929 23.401 8.90817C28.9747 7.87281 30.8077 9.79851 30.8836 9.88054L31.0899 10.1064L30.7946 10.0256C30.0453 9.8211 29.2806 9.77949 28.8324 9.77593C31.988 11.2543 32.4452 13.8165 32.4544 13.8681L32.4925 14.1076L32.3099 13.9507C31.1017 12.9153 30.286 12.567 29.8734 12.4505C31.3128 13.89 31.4278 15.1964 31.4325 15.2535L31.4562 15.5744L31.2713 15.3117C30.9927 14.9159 30.6547 14.5843 30.4046 14.3643C31.9675 17.2909 31.1633 19.8191 31.1504 19.8594L31.0756 20.0832L30.9844 19.8657C30.6073 18.967 30.1461 18.3572 29.9113 18.0802C29.8864 21.3314 27.9467 23.2535 27.9266 23.2725L27.7155 23.477L27.7784 23.1893C27.9112 22.5807 27.9716 22.0327 27.9965 21.5869C27.7298 22.3263 27.2128 23.4853 26.2797 24.7346L26.0461 25.0473L26.122 24.6633L26.1296 24.6235C26.1641 24.4453 26.3079 23.702 26.4161 22.9908L26.1422 23.2547C25.6821 23.7028 24.9245 24.29 24.1135 24.8238C23.4436 25.2636 22.4382 25.7557 21.0403 26.3263C18.1106 27.5257 17.0103 28.1272 16.1353 29.0045C15.6812 29.4597 15.4856 29.7403 15.1856 30.3643C14.3616 32.0844 15.0623 34.4143 16.0464 34.9837C16.0464 34.9837 15.686 33.2553 16.4649 32.0987C16.4649 32.0987 16.874 36.0832 21.1613 36.3578C21.1754 36.3587 21.2055 36.3621 21.2502 36.3673C21.7674 36.4273 24.254 36.7159 27.0919 35.8276C27.8697 35.5685 28.6261 35.2511 29.3493 34.8767L29.4887 34.8049L29.5521 34.7721C29.9683 34.5498 30.3726 34.3085 30.7626 34.0481C31.7361 33.4003 32.2708 32.9605 33.1434 32.0915C34.9077 30.3227 36.5332 27.4318 37.2754 24.8999C37.2754 24.8999 38.6519 21.6582 37.9014 15.5649ZM15.1524 9.44071C14.7481 9.74383 14.6936 10.312 14.6876 10.5129C15.003 10.5474 16.248 10.5771 16.9048 8.97831C16.5088 8.989 15.5959 9.10906 15.1524 9.44071Z" fill="white"/>
<path d="M97.7897 18.8432V9.51425L98.9101 8.39092C97.8395 8.33386 97.1174 8.3196 96.6657 8.3196C96.2306 8.3196 96.048 8.33267 96.048 8.33267C93.4609 8.39924 91.3161 9.41915 89.6419 10.9395C87.9014 12.5193 85.9819 15.2973 84.8721 19.7704C84.3872 22.029 84.3765 23.8001 84.4287 25.4893C84.5899 30.6269 87.1971 35.5315 90.9473 37.2587C90.9473 37.2587 85.478 29.3989 88.3816 19.4744C88.3816 19.4744 88.831 18.0468 89.5744 16.6608L94.8825 22.7909V31.2688L93.7621 32.3921H98.909L97.7885 31.2688V21.8732L91.0209 14.0634C91.9634 12.5823 93.436 11.5707 94.8825 11.2997V15.1309L97.7885 18.8432H97.7897Z" fill="white"/>
<path d="M65.9081 9.517V11.2585L68.8141 14.9708V9.517L69.9334 8.39367H64.7877L65.9081 9.517Z" fill="white"/>
<path fill-rule="evenodd" clip-rule="evenodd" d="M52.1302 8.4294H44.7828L45.9032 9.55273V31.2728L44.7828 32.3961H52.1646C54.3782 32.3961 55.4856 30.9399 55.4856 28.0264V12.3141C55.4856 9.72509 54.3664 8.4294 52.1302 8.4294ZM52.4029 29.586H48.8092V10.9958H52.4029V29.586Z" fill="white"/>
<path d="M60.4952 8.39367L68.8137 18.002V31.2727L69.9329 32.3949H64.7872L65.9076 31.2727V18.9137L61.4709 13.7892V31.2727L62.5914 32.3949H57.4445L58.5649 31.2727V9.517L57.4445 8.39367H60.4952Z" fill="white"/>
<path fill-rule="evenodd" clip-rule="evenodd" d="M78.6534 8.4294H71.306L72.4264 9.55273V31.2728L71.306 32.3961H78.6878C80.6572 32.3961 81.748 31.2407 81.9661 28.9358C81.7183 27.822 81.5689 26.6808 81.5334 25.5468C81.4824 23.9052 81.4729 21.9438 82.0088 19.4309V12.3141C82.0088 9.72509 80.8895 8.4294 78.6534 8.4294ZM78.9261 29.586H75.3324V10.9958H78.9261V29.586Z" fill="white"/>
<path d="M105.833 8.39367L104.713 9.517V31.2727L105.833 32.3949H100.686L101.807 31.2727V9.517L100.686 8.39367H105.833Z" fill="white"/>
<path d="M5.28934 31.21C5.28459 31.1922 5.27985 31.1744 5.27511 31.1577C5.04628 30.3316 4.8791 29.3414 4.86487 28.2002C4.86487 28.183 4.86428 28.1663 4.86369 28.1497C4.8631 28.1331 4.8625 28.1164 4.8625 28.0992H4.86369C4.86132 27.556 4.89214 26.9806 4.96921 26.372C5.18974 24.6436 5.94026 23.3658 6.88047 23.1173C6.9611 23.0971 7.03105 23.0864 7.08677 23.0864C7.1425 23.0864 7.1674 23.0983 7.17096 23.1019C7.21957 23.1506 7.24328 23.4204 6.99785 23.9066L6.74294 24.4118L6.53545 24.8219L6.96465 24.6579C7.51005 24.4487 8.03173 24.0386 8.05308 24.0207C8.58306 23.5892 8.98737 22.9521 9.22568 22.1759C9.42724 21.5185 9.65726 21.1405 10.0189 20.8707C10.0407 20.8531 10.6296 20.379 11.45 20.1586C12.0819 19.9886 12.3759 19.972 13.0209 19.9363L13.0358 19.9355C13.3059 19.9202 13.641 19.9012 14.0809 19.8662L14.6358 19.8222L14.158 19.5369C13.6908 19.2576 13.2154 19.1363 13.1964 19.1316C12.5455 18.958 11.8377 18.8701 11.0931 18.8701C9.33002 18.8701 7.59897 19.3693 6.46075 20.2062C6.37302 20.2716 6.29832 20.3203 6.24259 20.3536C6.17501 20.1063 6.10862 19.5334 6.51766 18.643L6.71804 18.2056L6.28172 18.4077C4.11792 19.4097 4.12029 21.8193 4.14163 22.2817L3.79661 22.6941C3.467 23.0924 3.00815 23.739 2.65009 24.3084C2.39873 23.6368 2.343 23.0448 2.29321 22.5135C2.21288 21.6513 2.26672 20.7336 2.31871 19.8475L2.31929 19.8377L2.32522 19.7283C2.43193 17.9215 2.80541 16.161 3.43617 14.4932C3.85826 13.3771 4.40247 12.293 5.05576 11.2695L5.27748 10.9224C5.70787 10.2769 6.76902 8.79696 8.45264 7.16011C10.5216 5.14882 13.9813 2.48136 18.7168 1.19399L20.187 0.794588L18.6646 0.845703C18.3611 0.856401 18.1406 0.868288 18.0078 0.883741C14.733 1.27364 11.7796 2.2983 9.23042 3.92921C5.83829 6.09979 3.1279 9.28552 1.59486 12.8956C0.790993 14.7976 0.294208 16.6377 0.0736774 18.5218C-0.038959 19.5001 -0.018803 21.9869 0.109247 23.0317C0.341633 24.9646 0.734082 26.5063 1.42057 28.1872C1.56403 28.5438 1.74425 28.9539 1.90076 29.282C1.90076 29.282 2.17701 29.8204 2.35842 30.1152C2.54812 30.4231 2.67261 30.5622 2.67261 30.5622C2.67261 30.5622 2.54101 30.0713 2.53034 29.7135C2.52819 29.6794 2.43196 28.1542 2.90619 26.8059L2.89907 26.983C2.8801 27.6071 2.93938 28.2121 2.99748 28.5984C3.29508 30.1081 4.23174 32.4237 6.99904 34.9735C6.99904 34.9735 5.92128 33.5292 5.29763 31.2302C5.29631 31.2269 5.29536 31.2232 5.29436 31.2194C5.29357 31.2163 5.29276 31.2132 5.29171 31.21H5.28934Z" fill="white"/>
<path d="M20.1868 32.8994C20.1868 32.8994 19.0983 31.3969 21.8455 30.0489L21.8478 30.0513C22.3969 29.7818 23.1024 29.5567 23.902 29.3015C26.5311 28.4623 30.1778 27.2984 32.6289 23.1675C32.6289 23.1675 32.2531 25.6745 29.6221 28.4976C29.6221 28.4976 34.2592 26.7158 34.0339 20.0257L34.3671 21.571C34.4192 21.8777 34.4536 22.1975 34.4702 22.522C34.5011 23.1485 34.4643 23.7892 34.3588 24.4263C34.1537 25.6721 33.683 26.9 33 27.9782C31.7397 29.9681 30.4201 31.0712 27.9575 32.1945C27.5804 32.3669 27.1987 32.5226 26.8228 32.6569C26.4434 32.7924 26.0652 32.9089 25.6905 33.0088C25.7498 32.9898 25.7439 32.991 25.6609 33.0159C25.4155 33.0801 25.1724 33.1372 24.9317 33.1859C24.0389 33.3321 23.0335 33.2762 22.3719 32.8091C21.5348 32.2183 22.577 30.9868 22.577 30.9868C20.1512 31.2792 20.1868 32.8994 20.1868 32.8994Z" fill="white"/>
</svg>
