<svg width="65" height="64" viewBox="0 0 65 64" fill="none" xmlns="http://www.w3.org/2000/svg">
<path d="M53.8776 9.68239L53.852 9.65421L53.8557 9.66371L53.8776 9.68239Z" fill="white"/>
<path fill-rule="evenodd" clip-rule="evenodd" d="M61.1423 24.9039C60.1379 16.746 54.3121 10.1636 53.8776 9.68239C60.4743 15.3272 64.6594 23.7217 64.6594 33.0993C64.6594 45.4961 57.3482 56.1774 46.814 61.052L46.8576 61.0007C43.9077 62.3567 40.6752 63.1613 37.0708 63.4541C33.2559 63.7642 27.9062 63.0072 25.0607 60.9645C20.3428 57.5772 18.8972 51.7839 21.4601 46.5498C21.4734 46.5174 21.8718 45.5855 23.0081 44.315C24.7536 42.123 27.4153 40.7427 29.8811 39.4639C30.0683 39.3668 30.2543 39.2703 30.4388 39.1741L30.7913 38.9902C33.5655 37.5438 36.2741 36.1316 38.6055 33.9894C38.7269 33.8783 38.8435 33.7624 38.96 33.6464L39.0475 33.5596C39.6413 32.951 40.6941 31.7585 41.3429 30.3758C41.305 30.4119 41.2746 30.4404 41.2689 30.4442C40.0909 31.5511 37.7765 33.0879 35.3767 34.3622C34.2006 34.9917 32.3756 35.8324 29.6344 37.0021C24.8216 39.0562 20.32 41.2662 18.1005 45.6616C16.7668 48.3053 16.5392 51.4967 17.4763 54.4162C18.1175 56.417 19.3316 58.3284 20.984 59.9394C21.7769 60.7135 22.6666 61.4172 23.6303 62.0315L27.045 64L26.0016 63.7204C23.4444 63.0376 21.8869 62.2826 21.8718 62.2749C17.2373 59.9983 14.1869 56.3999 13.282 52.1434C12.7622 49.6956 12.9766 47.0823 13.8853 44.7867C15.9284 39.6248 20.8512 36.8918 23.6019 35.7221C24.7989 35.2124 25.1271 35.0849 27.9897 34.037C33.8876 31.8745 37.1846 30.0277 38.6814 28.0478C39.8443 26.511 40.309 24.7955 39.9884 23.2207C39.535 21.1571 38.0705 20.1396 37.4919 19.8105C37.4919 19.8105 40.2692 19.8448 42.1169 21.1495C42.1169 21.1495 39.6811 18.677 35.7543 18.599C33.5139 18.4659 32.0019 19.0631 32.0019 19.0631L32.3908 19.2704C33.0017 19.5994 33.5859 20.0768 34.0336 20.615C34.2423 20.7919 34.5572 21.3302 34.7185 21.7315C34.7697 21.8494 34.8114 21.9616 34.8418 22.07C35.2496 23.3348 35.2136 24.8468 34.7318 26.5624L34.4282 27.6427L34.4529 26.5205L34.4529 26.5188C34.4535 26.4282 34.4752 23.1603 31.9431 21.547L31.8957 21.5166C31.8645 21.4962 31.8333 21.4785 31.8011 21.4601L31.78 21.4481L31.7515 21.431C31.1919 21.1114 30.5735 20.8623 29.9114 20.6911C28.8623 20.4248 27.119 20.3621 26.0282 20.5542C24.3796 20.8395 23.0271 21.5565 22.4124 22.4732C22.1222 22.905 22.0216 23.3443 22.1165 23.776C22.31 24.6224 22.9208 25.2101 24.0401 25.6266C24.1292 25.6609 24.2165 25.6951 24.2962 25.7274L26.0358 26.1934L25.3187 26.2847C22.3176 26.6651 20.6747 25.756 19.9614 25.1797C19.8875 25.1245 19.8116 25.058 19.7243 24.9705C19.5574 24.8069 19.4758 24.6947 19.472 24.689C19.1913 24.3523 18.7606 23.7361 18.7606 23.4622C18.7606 23.3709 18.7606 23.0933 20.2157 22.0034C20.283 21.9515 20.3456 21.9059 20.4035 21.8637L20.4205 21.8513C18.8137 22.129 17.8861 22.7966 17.6622 23.8388L17.5351 24.3866L16.9528 23.7342C16.12 22.8251 15.9568 22.0015 15.9473 20.7995C15.9378 20.3697 15.991 20.0102 16.101 19.7915C16.1617 19.6717 16.3438 19.4453 16.6416 19.1144C16.7991 18.9394 16.9755 18.753 17.15 18.5724L18.7322 16.8834L18.6013 17.4122C18.5387 17.6613 18.3831 18.3593 18.4021 18.5933C18.4096 18.6739 18.4189 18.6769 18.4592 18.6897L18.4609 18.6903C18.8346 18.8139 20.0089 18.2091 21.0978 17.1459C22.0065 16.252 22.3176 15.7708 22.6837 14.6886C23.0536 13.5551 23.2338 13.2793 23.9623 12.7239L26.7111 10.2799L26.5612 10.7649L26.5525 10.7923C26.5088 10.9302 26.3163 11.5378 26.1192 12.0259C26.565 11.7615 27.3447 11.1624 27.7791 10.0289C27.8247 9.87863 27.8778 9.70175 27.9385 9.49634C28.4184 7.8816 29.1564 7.09991 31.3702 5.86175C32.571 5.19798 33.4114 4.61218 34.1835 3.90276C34.5155 3.59275 35.3198 2.80155 35.6423 2.1663L35.815 1.86389C35.8128 1.87017 35.8091 1.89282 35.8031 1.92967C35.7507 2.25039 35.5226 3.64647 34.6122 4.67685C34.1456 5.27596 33.2748 6.0101 32.0304 6.85076C30.8182 7.66669 30.1068 8.49973 29.9114 9.32897C30.5374 8.93528 32.2353 8.08131 33.8041 7.3795C37.8296 5.57456 39.6906 4.20327 41.1798 1.93807C41.4833 1.46449 41.895 0.758871 42.1302 0.0931946L42.1738 0C42.1726 0.00750925 42.1723 0.0291445 42.1718 0.0637538C42.1677 0.362244 42.15 1.62579 41.4378 3.11536C40.6809 4.65403 39.3415 6.09759 37.5659 7.28059C37.1543 7.55638 35.9743 8.22966 34.8797 8.81165C33.1345 9.7455 32.4155 10.162 31.5827 10.8182C32.6241 10.2723 34.1987 9.57623 36.145 9.11406C36.1887 9.10264 37.3193 8.81926 42.0183 8.61765C46.4953 8.42556 49.1568 7.74847 51.2018 6.27637L51.8639 5.79899L51.401 6.47227C51.3839 6.497 49.6633 8.9562 46.7248 9.95091C45.837 10.2895 44.841 10.4226 42.8036 10.6109C40.5082 10.8239 39.2676 11.0597 38.0592 11.5086C37.8979 11.5675 37.7158 11.6417 37.5318 11.7197C43.0351 10.6965 47.2958 12.5451 47.3413 12.5661L47.9351 12.8285L47.2863 12.838C41.5914 12.9122 38.247 13.8575 36.6079 14.506C37.0082 14.4204 37.4578 14.3349 37.9415 14.2531C46.8595 12.5965 49.7923 15.6776 49.9137 15.8089L50.2438 16.1702L49.7714 16.0409C48.5725 15.7138 47.3489 15.6472 46.6318 15.6415C51.6808 18.0069 52.4124 22.1064 52.4271 22.1889L52.488 22.5721L52.1958 22.3211C50.2628 20.6645 48.9576 20.1072 48.2974 19.9208C50.6004 22.2241 50.7844 24.3143 50.792 24.4056L50.83 24.9191L50.534 24.4988C50.0882 23.8654 49.5476 23.3348 49.1473 22.9829C51.648 27.6654 50.3612 31.7106 50.3407 31.7751L50.221 32.1331L50.075 31.7851C49.4717 30.3472 48.7338 29.3715 48.3581 28.9284C48.3183 34.1302 45.2148 37.2056 45.1825 37.236L44.8448 37.5632L44.9454 37.1029C45.1578 36.1291 45.2546 35.2523 45.2944 34.5391C44.8676 35.7221 44.0405 37.5765 42.5475 39.5754L42.1738 40.0756L42.2952 39.4613L42.3074 39.3976C42.3626 39.1126 42.5926 37.9232 42.7657 36.7853L42.3275 37.2075C41.5914 37.9245 40.3792 38.8641 39.0816 39.718C38.0098 40.4218 36.4011 41.2092 34.1645 42.1221C29.477 44.0411 27.7165 45.0035 26.3165 46.4071C25.59 47.1356 25.2769 47.5844 24.797 48.5829C23.4785 51.335 24.5997 55.0628 26.1742 55.9738C26.1742 55.9738 25.5975 53.2084 26.8439 51.3579C26.8439 51.3579 27.4984 57.7331 34.358 58.1725C34.3807 58.1739 34.4287 58.1794 34.5004 58.1877C35.3279 58.2838 39.3064 58.7454 43.847 57.3242C45.0915 56.9096 46.3018 56.4018 47.459 55.8027L47.6819 55.6878L47.7833 55.6353C48.4492 55.2796 49.0961 54.8936 49.7202 54.477C51.2777 53.4405 52.1332 52.7368 53.5295 51.3464C56.3522 48.5164 58.9531 43.8909 60.1406 39.8398C60.1406 39.8398 62.3431 34.6532 61.1423 24.9039ZM24.7439 15.1051C24.097 15.5901 24.0097 16.4993 24.0002 16.8207C24.5048 16.8758 26.4967 16.9234 27.5477 14.3653C26.9141 14.3824 25.4534 14.5745 24.7439 15.1051Z" fill="white"/>
<path d="M8.96294 49.9361C8.95535 49.9075 8.94776 49.879 8.94017 49.8524C8.57404 48.5305 8.30656 46.9462 8.2838 45.1204C8.2838 45.0928 8.28285 45.0662 8.2819 45.0395C8.28095 45.0129 8.28 44.9863 8.28 44.9587H8.2819C8.27811 44.0895 8.32743 43.169 8.45074 42.1952C8.80358 39.4298 10.0044 37.3852 11.5088 36.9877C11.6378 36.9554 11.7497 36.9383 11.8388 36.9383C11.928 36.9383 11.9678 36.9573 11.9735 36.963C12.0513 37.041 12.0892 37.4727 11.6966 38.2506L11.2887 39.0589L10.9567 39.7151L11.6434 39.4526C12.5161 39.1179 13.3508 38.4617 13.3849 38.4332C14.2329 37.7428 14.8798 36.7233 15.2611 35.4814C15.5836 34.4296 15.9516 33.8248 16.5302 33.3931C16.5651 33.365 17.5074 32.6063 18.8199 32.2538C19.831 31.9818 20.3015 31.9552 21.3335 31.8981L21.3573 31.8968C21.7895 31.8723 22.3256 31.8419 23.0294 31.7859L23.9173 31.7156L23.1527 31.2591C22.4053 30.8121 21.6446 30.6181 21.6143 30.6105C20.5728 30.3328 19.4403 30.1921 18.2489 30.1921C15.428 30.1921 12.6584 30.9909 10.8372 32.3299C10.6968 32.4345 10.5773 32.5125 10.4882 32.5657C10.38 32.1701 10.2738 31.2534 10.9283 29.8288L11.2489 29.1289L10.5508 29.4523C7.08867 31.0556 7.09246 34.9108 7.12661 35.6507L6.57457 36.3106C6.04719 36.9478 5.31304 37.9824 4.74014 38.8934C4.33797 37.8189 4.24881 36.8717 4.16913 36.0215C4.04061 34.642 4.12676 33.1738 4.20994 31.756L4.21087 31.7403L4.22035 31.5653C4.39108 28.6744 4.98865 25.8576 5.99787 23.1892C6.67322 21.4033 7.54395 19.6687 8.58922 18.0312L8.94396 17.4758C9.63259 16.443 11.3304 14.0751 14.0242 11.4562C17.3345 8.23812 22.8701 3.97018 30.4468 1.91039L32.7992 1.27134L30.3634 1.35312C29.8777 1.37024 29.5249 1.38926 29.3124 1.41399C24.0728 2.03782 19.3473 3.67728 15.2687 6.28674C9.84126 9.75966 5.50464 14.8568 3.05178 20.633C1.76559 23.6761 0.970732 26.6203 0.617884 29.6348C0.437666 31.2001 0.469915 35.179 0.674795 36.8508C1.04661 39.9433 1.67453 42.4101 2.77291 45.0994C3.00246 45.67 3.2908 46.3262 3.54121 46.8511C3.54121 46.8511 3.98322 47.7127 4.27347 48.1844C4.57699 48.677 4.77618 48.8995 4.77618 48.8995C4.77618 48.8995 4.56561 48.114 4.54854 47.5415C4.5451 47.487 4.39113 45.0467 5.1499 42.8894L5.13851 43.1728C5.10816 44.1713 5.20301 45.1394 5.29597 45.7575C5.77212 48.173 7.27078 51.8779 11.6985 55.9576C11.6985 55.9576 9.97406 53.6467 8.97621 49.9684C8.9741 49.9631 8.97258 49.9572 8.97098 49.951C8.96972 49.9462 8.96841 49.9411 8.96673 49.9361H8.96294Z" fill="white"/>
<path d="M32.7988 52.6391C32.7988 52.6391 31.0573 50.235 35.4528 48.0783L35.4566 48.0821C36.3351 47.651 37.4638 47.2907 38.7431 46.8824C42.9498 45.5397 48.7845 43.6775 52.7063 37.068C52.7063 37.068 52.1049 41.0791 47.8954 45.5962C47.8954 45.5962 55.3147 42.7452 54.9543 32.0412L55.4873 34.5137C55.5708 35.0044 55.6258 35.516 55.6524 36.0352C55.7017 37.0375 55.6429 38.0627 55.474 39.0821C55.1459 41.0753 54.3927 43.04 53.3 44.7651C51.2835 47.9489 49.1721 49.7139 45.232 51.5112C44.6287 51.787 44.0179 52.0362 43.4165 52.2511C42.8095 52.4679 42.2043 52.6543 41.6048 52.8141C41.6997 52.7836 41.6902 52.7855 41.5574 52.8255C41.1647 52.9282 40.7758 53.0195 40.3907 53.0974C38.9623 53.3314 37.3536 53.242 36.295 52.4945C34.9557 51.5493 36.6232 49.5789 36.6232 49.5789C32.7419 50.0467 32.7988 52.6391 32.7988 52.6391Z" fill="white"/>
</svg>
