<svg width="18" height="15" viewBox="0 0 18 15" fill="none" xmlns="http://www.w3.org/2000/svg">
<path d="M9 0L0 15H18L9 0ZM9 1.9437L16.2338 14H1.7662L9 1.9437ZM9.75 11.7544C9.75 11.9656 9.6771 12.1427 9.5312 12.2856C9.3854 12.4285 9.2068 12.5 8.9956 12.5C8.7844 12.5 8.6073 12.4271 8.4644 12.2812C8.3215 12.1353 8.25 11.9568 8.25 11.7456C8.25 11.5344 8.3229 11.3572 8.4688 11.2144C8.6146 11.0715 8.7932 11 9.0044 11C9.2156 11 9.3927 11.0729 9.5356 11.2188C9.6785 11.3646 9.75 11.5431 9.75 11.7544ZM9.5 10H8.5V6H9.5V10Z" fill="white"/>
</svg>
