<svg xmlns="http://www.w3.org/2000/svg" viewBox="0 0 20 20" style="enable-background:new 0 0 20 20" xml:space="preserve">
    <path d="m3 3.707 3.146 3.147L6 7l-4-.02v6L6 13l4 4v-6.293l4.282 4.282A5.846 5.846 0 0 1 12 15.91v1.01a6.96 6.96 0 0 0 3.014-1.199L16.293 17l.707-.707L3.707 3 3 3.707zm3.854 3.854L9 9.707v4.879l-2.584-2.584L3 11.984v-4l3.412.018.442-.441zM12 7.184V6.14A3.99 3.99 0 0 1 15 10a3.93 3.93 0 0 1-.68 2.198l-.721-.721C13.85 11.04 14 10.54 14 10a2.991 2.991 0 0 0-2-2.816zm0-3.094V3.08c3.391.486 6 3.394 6 6.92a6.946 6.946 0 0 1-1.528 4.35l-.72-.72A5.938 5.938 0 0 0 17 10a5.997 5.997 0 0 0-5-5.91zM8.268 6.146l-.707-.707L10 3v4.878l-1-1V5.414l-.732.732z"/>
</svg>
