<svg data-name="Ebene 1" xmlns="http://www.w3.org/2000/svg" viewBox="0 0 20 20">
    <path d="M10 2a8 8 0 1 0 0 16 8 8 0 0 0 0-16Zm0 1c3.86 0 7 3.14 7 7 0 1.65-.578 3.167-1.537 4.365A7.954 7.954 0 0 0 9.808 12a7.95 7.95 0 0 0-5.433 2.15A6.954 6.954 0 0 1 3 10c0-3.86 3.14-7 7-7ZM5.021 14.913A6.955 6.955 0 0 1 9.807 13a6.96 6.96 0 0 1 4.973 2.1A6.967 6.967 0 0 1 10 17c-1.946 0-3.708-.8-4.979-2.087ZM10 11a3 3 0 1 0 0-6 3 3 0 0 0 0 6Zm0-5c1.103 0 2 .897 2 2s-.897 2-2 2-2-.897-2-2 .897-2 2-2Z" style="fill:#fff;stroke-width:0"/>
</svg>
