<svg  xmlns="http://www.w3.org/2000/svg" viewBox="0 0 20 20" style="enable-background:new 0 0 20 20" xml:space="preserve">
    <path d="M10 10c.972 0 1.799-.34 2.48-1.02.68-.681 1.02-1.508 1.02-2.48s-.34-1.799-1.02-2.48C11.798 3.34 10.971 3 10 3s-1.799.34-2.48 1.02C6.84 4.702 6.5 5.529 6.5 6.5s.34 1.799 1.02 2.48C8.202 9.66 9.029 10 10 10zM8.228 4.728C8.718 4.238 9.298 4 10 4s1.282.238 1.772.728.728 1.07.728 1.772c0 .703-.238 1.282-.728 1.772S10.702 9 10 9s-1.282-.238-1.772-.728S7.5 7.202 7.5 6.5c0-.703.238-1.282.728-1.772zm8.468 8.772a2.376 2.376 0 0 0-.838-.85 11.749 11.749 0 0 0-2.832-1.225 11.035 11.035 0 0 0-6.057 0c-.993.283-1.935.692-2.827 1.225-.356.233-.636.52-.838.863A2.098 2.098 0 0 0 3 14.6V17h14v-2.4c0-.383-.101-.75-.304-1.1zM16 16H4v-1.4c0-.202.054-.391.164-.578.125-.21.297-.385.492-.514a10.824 10.824 0 0 1 2.587-1.121 10.03 10.03 0 0 1 5.51 0c.907.258 1.78.635 2.585 1.118.213.129.374.291.493.496.114.197.169.393.169.599V16z"/>
</svg>
