<svg width="14" height="15" viewBox="0 0 14 15" fill="none" xmlns="http://www.w3.org/2000/svg">
<path d="M0 0V8C0 9 0.2 9.9 0.6 10.7C1 11.5 1.5 12.3 2.1 12.9C2.7 13.5 3.5 14 4.3 14.4C5.1 14.8 6 15 7 15C8 15 8.9 14.8 9.7 14.4C10.5 14 11.3 13.5 11.9 12.9C12.5 12.3 13 11.5 13.4 10.7C13.8 9.9 14 9 14 8V0H0ZM13 8C13 8.8 12.8 9.6 12.5 10.3C12.2 11 11.7 11.7 11.2 12.2C10.7 12.7 10 13.2 9.3 13.5C8.6 13.8 7.8 14 7 14C6.2 14 5.4 13.8 4.7 13.5C4 13.2 3.3 12.7 2.8 12.2C2.3 11.7 1.8 11 1.5 10.3C1.2 9.6 1 8.8 1 8V1H13V8ZM6 5H3C3 4.6 3.1 4.2 3.4 3.9C3.7 3.6 4 3.5 4.5 3.5C5 3.5 5.3 3.6 5.6 3.9C5.9 4.2 6 4.6 6 5ZM11 5H8C8 4.6 8.1 4.2 8.4 3.9C8.7 3.6 9 3.5 9.5 3.5C10 3.5 10.3 3.6 10.6 3.9C10.9 4.2 11 4.6 11 5ZM4 8H10C10 8.8 9.7 9.5 9.1 10.1C8.5 10.7 7.8 11 7 11C6.2 11 5.5 10.7 4.9 10.1C4.3 9.5 4 8.8 4 8Z" fill="white"/>
</svg>
